<svg width="64" height="64" viewBox="0 0 64 64" fill="none" xmlns="http://www.w3.org/2000/svg">
<path d="M31 32C31 32.5523 31.4477 33 32 33C32.5523 33 33 32.5523 33 32H31ZM32.7071 11.2929C32.3166 10.9024 31.6834 10.9024 31.2929 11.2929L24.9289 17.6569C24.5384 18.0474 24.5384 18.6805 24.9289 19.0711C25.3195 19.4616 25.9526 19.4616 26.3431 19.0711L32 13.4142L37.6569 19.0711C38.0474 19.4616 38.6805 19.4616 39.0711 19.0711C39.4616 18.6805 39.4616 18.0474 39.0711 17.6569L32.7071 11.2929ZM33 32V12H31V32H33Z" fill="white"/>
<path d="M32 31C31.4477 31 31 31.4477 31 32C31 32.5523 31.4477 33 32 33V31ZM52.7071 32.7071C53.0976 32.3166 53.0976 31.6834 52.7071 31.2929L46.3431 24.9289C45.9526 24.5384 45.3195 24.5384 44.9289 24.9289C44.5384 25.3195 44.5384 25.9526 44.9289 26.3431L50.5858 32L44.9289 37.6569C44.5384 38.0474 44.5384 38.6805 44.9289 39.0711C45.3195 39.4616 45.9526 39.4616 46.3431 39.0711L52.7071 32.7071ZM32 33L52 33V31L32 31V33Z" fill="white"/>
<path d="M32 33C32.5523 33 33 32.5523 33 32C33 31.4477 32.5523 31 32 31V33ZM11.2929 31.2929C10.9024 31.6834 10.9024 32.3166 11.2929 32.7071L17.6569 39.0711C18.0474 39.4616 18.6805 39.4616 19.0711 39.0711C19.4616 38.6805 19.4616 38.0474 19.0711 37.6569L13.4142 32L19.0711 26.3431C19.4616 25.9526 19.4616 25.3195 19.0711 24.9289C18.6805 24.5384 18.0474 24.5384 17.6569 24.9289L11.2929 31.2929ZM32 31H12V33H32V31Z" fill="white"/>
<path d="M33 32C33 31.4477 32.5523 31 32 31C31.4477 31 31 31.4477 31 32H33ZM31.2929 52.7071C31.6834 53.0976 32.3166 53.0976 32.7071 52.7071L39.0711 46.3431C39.4616 45.9526 39.4616 45.3195 39.0711 44.9289C38.6805 44.5384 38.0474 44.5384 37.6569 44.9289L32 50.5858L26.3431 44.9289C25.9526 44.5384 25.3195 44.5384 24.9289 44.9289C24.5384 45.3195 24.5384 45.9526 24.9289 46.3431L31.2929 52.7071ZM31 32L31 52H33L33 32H31Z" fill="white"/>
</svg>
